<svg xmlns="http://www.w3.org/2000/svg" xmlns:xlink="http://www.w3.org/1999/xlink" width="500" zoomAndPan="magnify" viewBox="0 0 375 149.999998" height="200" preserveAspectRatio="xMidYMid meet" version="1.0"><defs><g/><clipPath id="38789cb05a"><path d="M 36 34 L 90 34 L 90 135 L 36 135 Z M 36 34 " clip-rule="nonzero"/></clipPath><clipPath id="bd6a137296"><path d="M 49 40 L 185 40 L 185 135 L 49 135 Z M 49 40 " clip-rule="nonzero"/></clipPath></defs><path fill="#0033a1" d="M 85.308594 15.007812 L 15.007812 55.511719 L 15.007812 70.179688 L 85.308594 29.671875 L 134.441406 58.039062 L 134.441406 43.375 L 85.308594 15.007812 " fill-opacity="1" fill-rule="nonzero"/><g clip-path="url(#38789cb05a)"><path fill="#38bfcc" d="M 85.308594 34.199219 L 36.171875 62.566406 L 36.171875 135.007812 L 44.257812 135.007812 L 44.257812 62.566406 L 89.351562 36.535156 L 85.308594 34.199219 " fill-opacity="1" fill-rule="nonzero"/></g><g clip-path="url(#bd6a137296)"><path fill="#38bfcc" d="M 78.699219 85.574219 C 78.699219 81.085938 82.347656 77.433594 86.835938 77.433594 C 91.328125 77.433594 94.976562 81.085938 94.976562 85.574219 L 94.976562 129.960938 L 78.699219 129.046875 Z M 100.585938 130.277344 L 100.585938 85.574219 C 100.585938 77.980469 94.429688 71.828125 86.835938 71.828125 C 79.246094 71.828125 73.089844 77.980469 73.089844 85.574219 L 73.089844 128.734375 L 56.839844 127.820312 L 56.839844 65.71875 L 96.921875 42.578125 L 93.324219 40.503906 L 49.652344 65.71875 L 49.652344 135.007812 L 184.917969 135.007812 L 100.585938 130.277344 " fill-opacity="1" fill-rule="nonzero"/></g><g fill="#6f7170" fill-opacity="1"><g transform="translate(115.557234, 97.266633)"><g><path d="M 3.359375 0 C 3.140625 0 2.96875 -0.0625 2.84375 -0.1875 C 2.71875 -0.320312 2.65625 -0.492188 2.65625 -0.703125 L 2.65625 -20.671875 C 2.65625 -20.890625 2.71875 -21.066406 2.84375 -21.203125 C 2.96875 -21.335938 3.140625 -21.40625 3.359375 -21.40625 L 10.828125 -21.40625 C 13.128906 -21.40625 14.953125 -20.863281 16.296875 -19.78125 C 17.640625 -18.695312 18.3125 -17.097656 18.3125 -14.984375 C 18.3125 -13.410156 17.921875 -12.128906 17.140625 -11.140625 C 16.359375 -10.148438 15.289062 -9.460938 13.9375 -9.078125 L 18.65625 -0.953125 C 18.71875 -0.828125 18.75 -0.710938 18.75 -0.609375 C 18.75 -0.441406 18.679688 -0.296875 18.546875 -0.171875 C 18.410156 -0.0546875 18.265625 0 18.109375 0 L 16.640625 0 C 16.285156 0 16.023438 -0.0859375 15.859375 -0.265625 C 15.703125 -0.453125 15.5625 -0.640625 15.4375 -0.828125 L 11.015625 -8.59375 L 5.65625 -8.59375 L 5.65625 -0.703125 C 5.65625 -0.492188 5.585938 -0.320312 5.453125 -0.1875 C 5.328125 -0.0625 5.148438 0 4.921875 0 Z M 5.65625 -11.1875 L 10.703125 -11.1875 C 12.234375 -11.1875 13.375 -11.507812 14.125 -12.15625 C 14.882812 -12.800781 15.265625 -13.753906 15.265625 -15.015625 C 15.265625 -16.253906 14.890625 -17.203125 14.140625 -17.859375 C 13.398438 -18.515625 12.253906 -18.84375 10.703125 -18.84375 L 5.65625 -18.84375 Z M 5.65625 -11.1875 "/></g></g></g><g fill="#6f7170" fill-opacity="1"><g transform="translate(135.589801, 97.266633)"><g><path d="M 3.359375 0 C 3.140625 0 2.96875 -0.0625 2.84375 -0.1875 C 2.71875 -0.320312 2.65625 -0.492188 2.65625 -0.703125 L 2.65625 -20.671875 C 2.65625 -20.890625 2.71875 -21.066406 2.84375 -21.203125 C 2.96875 -21.335938 3.140625 -21.40625 3.359375 -21.40625 L 16 -21.40625 C 16.21875 -21.40625 16.390625 -21.335938 16.515625 -21.203125 C 16.640625 -21.066406 16.703125 -20.890625 16.703125 -20.671875 L 16.703125 -19.515625 C 16.703125 -19.285156 16.640625 -19.109375 16.515625 -18.984375 C 16.390625 -18.867188 16.21875 -18.8125 16 -18.8125 L 5.59375 -18.8125 L 5.59375 -12.109375 L 15.3125 -12.109375 C 15.539062 -12.109375 15.710938 -12.039062 15.828125 -11.90625 C 15.953125 -11.78125 16.015625 -11.601562 16.015625 -11.375 L 16.015625 -10.25 C 16.015625 -10.039062 15.953125 -9.867188 15.828125 -9.734375 C 15.710938 -9.609375 15.539062 -9.546875 15.3125 -9.546875 L 5.59375 -9.546875 L 5.59375 -2.59375 L 16.234375 -2.59375 C 16.460938 -2.59375 16.632812 -2.53125 16.75 -2.40625 C 16.875 -2.289062 16.9375 -2.117188 16.9375 -1.890625 L 16.9375 -0.703125 C 16.9375 -0.492188 16.875 -0.320312 16.75 -0.1875 C 16.632812 -0.0625 16.460938 0 16.234375 0 Z M 3.359375 0 "/></g></g></g><g fill="#6f7170" fill-opacity="1"><g transform="translate(154.123756, 97.266633)"><g><path d="M 3.359375 0 C 3.140625 0 2.96875 -0.0625 2.84375 -0.1875 C 2.71875 -0.320312 2.65625 -0.492188 2.65625 -0.703125 L 2.65625 -20.671875 C 2.65625 -20.890625 2.71875 -21.066406 2.84375 -21.203125 C 2.96875 -21.335938 3.140625 -21.40625 3.359375 -21.40625 L 4.765625 -21.40625 C 5.015625 -21.40625 5.195312 -21.347656 5.3125 -21.234375 C 5.4375 -21.117188 5.507812 -21.035156 5.53125 -20.984375 L 15.6875 -5.375 L 15.6875 -20.671875 C 15.6875 -20.890625 15.742188 -21.066406 15.859375 -21.203125 C 15.984375 -21.335938 16.160156 -21.40625 16.390625 -21.40625 L 17.859375 -21.40625 C 18.078125 -21.40625 18.253906 -21.335938 18.390625 -21.203125 C 18.523438 -21.066406 18.59375 -20.890625 18.59375 -20.671875 L 18.59375 -0.734375 C 18.59375 -0.523438 18.523438 -0.347656 18.390625 -0.203125 C 18.253906 -0.0664062 18.085938 0 17.890625 0 L 16.421875 0 C 16.191406 0 16.019531 -0.0546875 15.90625 -0.171875 C 15.800781 -0.296875 15.726562 -0.378906 15.6875 -0.421875 L 5.5625 -15.875 L 5.5625 -0.703125 C 5.5625 -0.492188 5.492188 -0.320312 5.359375 -0.1875 C 5.234375 -0.0625 5.054688 0 4.828125 0 Z M 3.359375 0 "/></g></g></g><g fill="#6f7170" fill-opacity="1"><g transform="translate(175.379688, 97.266633)"><g><path d="M 10.359375 0.3125 C 8.609375 0.3125 7.109375 0.0078125 5.859375 -0.59375 C 4.617188 -1.195312 3.660156 -2.125 2.984375 -3.375 C 2.316406 -4.632812 1.941406 -6.210938 1.859375 -8.109375 C 1.835938 -9.003906 1.828125 -9.863281 1.828125 -10.6875 C 1.828125 -11.507812 1.835938 -12.367188 1.859375 -13.265625 C 1.941406 -15.140625 2.332031 -16.703125 3.03125 -17.953125 C 3.738281 -19.210938 4.71875 -20.148438 5.96875 -20.765625 C 7.226562 -21.390625 8.691406 -21.703125 10.359375 -21.703125 C 12.015625 -21.703125 13.46875 -21.390625 14.71875 -20.765625 C 15.976562 -20.148438 16.960938 -19.210938 17.671875 -17.953125 C 18.390625 -16.703125 18.78125 -15.140625 18.84375 -13.265625 C 18.875 -12.367188 18.890625 -11.507812 18.890625 -10.6875 C 18.890625 -9.863281 18.875 -9.003906 18.84375 -8.109375 C 18.78125 -6.210938 18.40625 -4.632812 17.71875 -3.375 C 17.039062 -2.125 16.078125 -1.195312 14.828125 -0.59375 C 13.585938 0.0078125 12.097656 0.3125 10.359375 0.3125 Z M 10.359375 -2.296875 C 11.910156 -2.296875 13.179688 -2.765625 14.171875 -3.703125 C 15.160156 -4.640625 15.695312 -6.15625 15.78125 -8.25 C 15.820312 -9.164062 15.84375 -9.984375 15.84375 -10.703125 C 15.84375 -11.429688 15.820312 -12.25 15.78125 -13.15625 C 15.738281 -14.5625 15.476562 -15.703125 15 -16.578125 C 14.519531 -17.453125 13.878906 -18.09375 13.078125 -18.5 C 12.285156 -18.90625 11.378906 -19.109375 10.359375 -19.109375 C 9.347656 -19.109375 8.441406 -18.90625 7.640625 -18.5 C 6.847656 -18.09375 6.210938 -17.453125 5.734375 -16.578125 C 5.253906 -15.703125 4.984375 -14.5625 4.921875 -13.15625 C 4.898438 -12.25 4.890625 -11.429688 4.890625 -10.703125 C 4.890625 -9.984375 4.898438 -9.164062 4.921875 -8.25 C 5.003906 -6.15625 5.546875 -4.640625 6.546875 -3.703125 C 7.546875 -2.765625 8.816406 -2.296875 10.359375 -2.296875 Z M 10.359375 -2.296875 "/></g></g></g><g fill="#6f7170" fill-opacity="1"><g transform="translate(196.085111, 97.266633)"><g><path d="M 9.015625 0 C 8.710938 0 8.472656 -0.0664062 8.296875 -0.203125 C 8.128906 -0.347656 7.992188 -0.546875 7.890625 -0.796875 L 1.0625 -20.453125 C 1.03125 -20.578125 1.015625 -20.691406 1.015625 -20.796875 C 1.015625 -20.953125 1.070312 -21.09375 1.1875 -21.21875 C 1.3125 -21.34375 1.457031 -21.40625 1.625 -21.40625 L 3.203125 -21.40625 C 3.453125 -21.40625 3.640625 -21.335938 3.765625 -21.203125 C 3.898438 -21.066406 3.988281 -20.953125 4.03125 -20.859375 L 10 -3.515625 L 16 -20.859375 C 16.03125 -20.953125 16.109375 -21.066406 16.234375 -21.203125 C 16.359375 -21.335938 16.539062 -21.40625 16.78125 -21.40625 L 18.375 -21.40625 C 18.539062 -21.40625 18.6875 -21.34375 18.8125 -21.21875 C 18.945312 -21.09375 19.015625 -20.953125 19.015625 -20.796875 C 19.015625 -20.691406 18.992188 -20.578125 18.953125 -20.453125 L 12.109375 -0.796875 C 12.023438 -0.546875 11.894531 -0.347656 11.71875 -0.203125 C 11.550781 -0.0664062 11.316406 0 11.015625 0 Z M 9.015625 0 "/></g></g></g><g fill="#6f7170" fill-opacity="1"><g transform="translate(216.117679, 97.266633)"><g><path d="M 3.359375 0 C 3.140625 0 2.96875 -0.0625 2.84375 -0.1875 C 2.71875 -0.320312 2.65625 -0.492188 2.65625 -0.703125 L 2.65625 -20.703125 C 2.65625 -20.898438 2.71875 -21.066406 2.84375 -21.203125 C 2.96875 -21.335938 3.140625 -21.40625 3.359375 -21.40625 L 4.984375 -21.40625 C 5.210938 -21.40625 5.382812 -21.335938 5.5 -21.203125 C 5.625 -21.066406 5.6875 -20.898438 5.6875 -20.703125 L 5.6875 -0.703125 C 5.6875 -0.492188 5.625 -0.320312 5.5 -0.1875 C 5.382812 -0.0625 5.210938 0 4.984375 0 Z M 3.359375 0 "/></g></g></g><g fill="#6f7170" fill-opacity="1"><g transform="translate(224.467132, 97.266633)"><g><path d="M 3.359375 0 C 3.160156 0 2.992188 -0.0625 2.859375 -0.1875 C 2.722656 -0.320312 2.65625 -0.492188 2.65625 -0.703125 L 2.65625 -20.671875 C 2.65625 -20.890625 2.722656 -21.066406 2.859375 -21.203125 C 2.992188 -21.335938 3.160156 -21.40625 3.359375 -21.40625 L 4.890625 -21.40625 C 5.140625 -21.40625 5.320312 -21.34375 5.4375 -21.21875 C 5.5625 -21.09375 5.644531 -20.992188 5.6875 -20.921875 L 12.140625 -8.5625 L 18.65625 -20.921875 C 18.695312 -20.992188 18.769531 -21.09375 18.875 -21.21875 C 18.988281 -21.34375 19.171875 -21.40625 19.421875 -21.40625 L 20.921875 -21.40625 C 21.140625 -21.40625 21.316406 -21.335938 21.453125 -21.203125 C 21.585938 -21.066406 21.65625 -20.890625 21.65625 -20.671875 L 21.65625 -0.703125 C 21.65625 -0.492188 21.585938 -0.320312 21.453125 -0.1875 C 21.316406 -0.0625 21.140625 0 20.921875 0 L 19.421875 0 C 19.210938 0 19.039062 -0.0625 18.90625 -0.1875 C 18.78125 -0.320312 18.71875 -0.492188 18.71875 -0.703125 L 18.71875 -15.75 L 13.609375 -5.78125 C 13.523438 -5.570312 13.398438 -5.410156 13.234375 -5.296875 C 13.078125 -5.191406 12.875 -5.140625 12.625 -5.140625 L 11.6875 -5.140625 C 11.414062 -5.140625 11.207031 -5.191406 11.0625 -5.296875 C 10.925781 -5.410156 10.804688 -5.570312 10.703125 -5.78125 L 5.5625 -15.75 L 5.5625 -0.703125 C 5.5625 -0.492188 5.492188 -0.320312 5.359375 -0.1875 C 5.234375 -0.0625 5.066406 0 4.859375 0 Z M 3.359375 0 "/></g></g></g><g fill="#6f7170" fill-opacity="1"><g transform="translate(248.750896, 97.266633)"><g><path d="M 3.359375 0 C 3.140625 0 2.96875 -0.0625 2.84375 -0.1875 C 2.71875 -0.320312 2.65625 -0.492188 2.65625 -0.703125 L 2.65625 -20.671875 C 2.65625 -20.890625 2.71875 -21.066406 2.84375 -21.203125 C 2.96875 -21.335938 3.140625 -21.40625 3.359375 -21.40625 L 11.125 -21.40625 C 12.632812 -21.40625 13.941406 -21.160156 15.046875 -20.671875 C 16.160156 -20.179688 17.023438 -19.453125 17.640625 -18.484375 C 18.253906 -17.515625 18.5625 -16.304688 18.5625 -14.859375 C 18.5625 -13.410156 18.253906 -12.207031 17.640625 -11.25 C 17.023438 -10.289062 16.160156 -9.566406 15.046875 -9.078125 C 13.941406 -8.585938 12.632812 -8.34375 11.125 -8.34375 L 5.71875 -8.34375 L 5.71875 -0.703125 C 5.71875 -0.492188 5.648438 -0.320312 5.515625 -0.1875 C 5.390625 -0.0625 5.210938 0 4.984375 0 Z M 5.6875 -10.921875 L 10.984375 -10.921875 C 12.484375 -10.921875 13.609375 -11.253906 14.359375 -11.921875 C 15.117188 -12.597656 15.5 -13.578125 15.5 -14.859375 C 15.5 -16.117188 15.128906 -17.097656 14.390625 -17.796875 C 13.660156 -18.492188 12.523438 -18.84375 10.984375 -18.84375 L 5.6875 -18.84375 Z M 5.6875 -10.921875 "/></g></g></g><g fill="#6f7170" fill-opacity="1"><g transform="translate(268.385882, 97.266633)"><g><path d="M 1.21875 0 C 1.0625 0 0.921875 -0.0546875 0.796875 -0.171875 C 0.671875 -0.296875 0.609375 -0.441406 0.609375 -0.609375 C 0.609375 -0.710938 0.617188 -0.828125 0.640625 -0.953125 L 8.21875 -20.734375 C 8.300781 -20.929688 8.414062 -21.09375 8.5625 -21.21875 C 8.707031 -21.34375 8.921875 -21.40625 9.203125 -21.40625 L 11.28125 -21.40625 C 11.570312 -21.40625 11.785156 -21.34375 11.921875 -21.21875 C 12.066406 -21.09375 12.179688 -20.929688 12.265625 -20.734375 L 19.8125 -0.953125 C 19.851562 -0.828125 19.875 -0.710938 19.875 -0.609375 C 19.875 -0.441406 19.8125 -0.296875 19.6875 -0.171875 C 19.570312 -0.0546875 19.429688 0 19.265625 0 L 17.703125 0 C 17.460938 0 17.285156 -0.0546875 17.171875 -0.171875 C 17.054688 -0.296875 16.976562 -0.410156 16.9375 -0.515625 L 15.265625 -4.859375 L 5.234375 -4.859375 L 3.546875 -0.515625 C 3.523438 -0.410156 3.453125 -0.296875 3.328125 -0.171875 C 3.210938 -0.0546875 3.03125 0 2.78125 0 Z M 6.109375 -7.484375 L 14.375 -7.484375 L 10.25 -18.34375 Z M 6.109375 -7.484375 "/></g></g></g><g fill="#6f7170" fill-opacity="1"><g transform="translate(288.877217, 97.266633)"><g><path d="M 10.359375 0.3125 C 8.484375 0.3125 6.929688 -0.0351562 5.703125 -0.734375 C 4.472656 -1.429688 3.539062 -2.398438 2.90625 -3.640625 C 2.269531 -4.878906 1.921875 -6.328125 1.859375 -7.984375 C 1.835938 -8.816406 1.828125 -9.710938 1.828125 -10.671875 C 1.828125 -11.628906 1.835938 -12.546875 1.859375 -13.421875 C 1.921875 -15.078125 2.269531 -16.523438 2.90625 -17.765625 C 3.539062 -19.003906 4.472656 -19.96875 5.703125 -20.65625 C 6.929688 -21.351562 8.484375 -21.703125 10.359375 -21.703125 C 11.765625 -21.703125 13 -21.507812 14.0625 -21.125 C 15.125 -20.738281 16.003906 -20.21875 16.703125 -19.5625 C 17.410156 -18.914062 17.945312 -18.1875 18.3125 -17.375 C 18.675781 -16.570312 18.878906 -15.742188 18.921875 -14.890625 C 18.941406 -14.703125 18.882812 -14.546875 18.75 -14.421875 C 18.625 -14.304688 18.46875 -14.25 18.28125 -14.25 L 16.609375 -14.25 C 16.421875 -14.25 16.257812 -14.300781 16.125 -14.40625 C 16 -14.507812 15.90625 -14.691406 15.84375 -14.953125 C 15.488281 -16.546875 14.835938 -17.632812 13.890625 -18.21875 C 12.941406 -18.8125 11.765625 -19.109375 10.359375 -19.109375 C 8.710938 -19.109375 7.410156 -18.644531 6.453125 -17.71875 C 5.492188 -16.789062 4.984375 -15.304688 4.921875 -13.265625 C 4.859375 -11.597656 4.859375 -9.890625 4.921875 -8.140625 C 4.984375 -6.097656 5.492188 -4.613281 6.453125 -3.6875 C 7.410156 -2.757812 8.710938 -2.296875 10.359375 -2.296875 C 11.765625 -2.296875 12.941406 -2.585938 13.890625 -3.171875 C 14.835938 -3.765625 15.488281 -4.859375 15.84375 -6.453125 C 15.90625 -6.710938 16 -6.894531 16.125 -7 C 16.257812 -7.101562 16.421875 -7.15625 16.609375 -7.15625 L 18.28125 -7.15625 C 18.46875 -7.15625 18.625 -7.097656 18.75 -6.984375 C 18.882812 -6.867188 18.941406 -6.722656 18.921875 -6.546875 C 18.878906 -5.691406 18.675781 -4.851562 18.3125 -4.03125 C 17.945312 -3.21875 17.410156 -2.484375 16.703125 -1.828125 C 16.003906 -1.179688 15.125 -0.660156 14.0625 -0.265625 C 13 0.117188 11.765625 0.3125 10.359375 0.3125 Z M 10.359375 0.3125 "/></g></g></g><g fill="#6f7170" fill-opacity="1"><g transform="translate(309.246219, 97.266633)"><g><path d="M 8.046875 0 C 7.835938 0 7.664062 -0.0625 7.53125 -0.1875 C 7.40625 -0.320312 7.34375 -0.492188 7.34375 -0.703125 L 7.34375 -18.6875 L 1.46875 -18.6875 C 1.257812 -18.6875 1.085938 -18.75 0.953125 -18.875 C 0.828125 -19.007812 0.765625 -19.179688 0.765625 -19.390625 L 0.765625 -20.671875 C 0.765625 -20.890625 0.828125 -21.066406 0.953125 -21.203125 C 1.085938 -21.335938 1.257812 -21.40625 1.46875 -21.40625 L 16.203125 -21.40625 C 16.429688 -21.40625 16.609375 -21.335938 16.734375 -21.203125 C 16.867188 -21.066406 16.9375 -20.890625 16.9375 -20.671875 L 16.9375 -19.390625 C 16.9375 -19.179688 16.867188 -19.007812 16.734375 -18.875 C 16.609375 -18.75 16.429688 -18.6875 16.203125 -18.6875 L 10.359375 -18.6875 L 10.359375 -0.703125 C 10.359375 -0.492188 10.289062 -0.320312 10.15625 -0.1875 C 10.03125 -0.0625 9.851562 0 9.625 0 Z M 8.046875 0 "/></g></g></g><g fill="#0033a1" fill-opacity="1"><g transform="translate(160.226513, 110.57632)"><g><path d="M 5.84375 -2.921875 C 5.84375 -2.003906 5.628906 -1.269531 5.203125 -0.71875 C 4.785156 -0.164062 4.222656 0.109375 3.515625 0.109375 C 2.765625 0.109375 2.179688 -0.15625 1.765625 -0.6875 L 1.71875 0 L 0.78125 0 L 0.78125 -8.5 L 1.796875 -8.5 L 1.796875 -5.328125 C 2.210938 -5.835938 2.78125 -6.09375 3.5 -6.09375 C 4.226562 -6.09375 4.800781 -5.816406 5.21875 -5.265625 C 5.632812 -4.722656 5.84375 -3.972656 5.84375 -3.015625 Z M 4.8125 -3.046875 C 4.8125 -3.742188 4.675781 -4.28125 4.40625 -4.65625 C 4.144531 -5.039062 3.757812 -5.234375 3.25 -5.234375 C 2.570312 -5.234375 2.085938 -4.914062 1.796875 -4.28125 L 1.796875 -1.703125 C 2.109375 -1.066406 2.597656 -0.75 3.265625 -0.75 C 3.753906 -0.75 4.132812 -0.9375 4.40625 -1.3125 C 4.675781 -1.695312 4.8125 -2.273438 4.8125 -3.046875 Z M 4.8125 -3.046875 "/></g></g></g><g fill="#0033a1" fill-opacity="1"><g transform="translate(166.579126, 110.57632)"><g><path d="M 2.734375 -1.5 L 4.125 -5.984375 L 5.21875 -5.984375 L 2.8125 0.921875 C 2.4375 1.921875 1.847656 2.421875 1.046875 2.421875 L 0.84375 2.40625 L 0.46875 2.328125 L 0.46875 1.5 L 0.734375 1.515625 C 1.085938 1.515625 1.359375 1.441406 1.546875 1.296875 C 1.742188 1.160156 1.90625 0.910156 2.03125 0.546875 L 2.25 -0.0625 L 0.125 -5.984375 L 1.234375 -5.984375 Z M 2.734375 -1.5 "/></g></g></g><g fill="#0033a1" fill-opacity="1"><g transform="translate(171.936552, 110.57632)"><g/></g></g><g fill="#0033a1" fill-opacity="1"><g transform="translate(174.739666, 110.57632)"><g><path d="M 6.859375 -2.5625 C 6.753906 -1.707031 6.4375 -1.046875 5.90625 -0.578125 C 5.382812 -0.117188 4.6875 0.109375 3.8125 0.109375 C 2.851562 0.109375 2.085938 -0.226562 1.515625 -0.90625 C 0.941406 -1.59375 0.65625 -2.507812 0.65625 -3.65625 L 0.65625 -4.421875 C 0.65625 -5.171875 0.785156 -5.828125 1.046875 -6.390625 C 1.316406 -6.960938 1.695312 -7.398438 2.1875 -7.703125 C 2.6875 -8.015625 3.257812 -8.171875 3.90625 -8.171875 C 4.757812 -8.171875 5.441406 -7.929688 5.953125 -7.453125 C 6.472656 -6.972656 6.773438 -6.3125 6.859375 -5.46875 L 5.796875 -5.46875 C 5.703125 -6.101562 5.5 -6.566406 5.1875 -6.859375 C 4.882812 -7.148438 4.457031 -7.296875 3.90625 -7.296875 C 3.21875 -7.296875 2.679688 -7.039062 2.296875 -6.53125 C 1.910156 -6.03125 1.71875 -5.316406 1.71875 -4.390625 L 1.71875 -3.625 C 1.71875 -2.75 1.898438 -2.050781 2.265625 -1.53125 C 2.640625 -1.007812 3.15625 -0.75 3.8125 -0.75 C 4.394531 -0.75 4.84375 -0.882812 5.15625 -1.15625 C 5.476562 -1.425781 5.691406 -1.894531 5.796875 -2.5625 Z M 6.859375 -2.5625 "/></g></g></g><g fill="#0033a1" fill-opacity="1"><g transform="translate(182.10958, 110.57632)"><g><path d="M 0.5 -3.046875 C 0.5 -3.628906 0.613281 -4.15625 0.84375 -4.625 C 1.070312 -5.09375 1.390625 -5.453125 1.796875 -5.703125 C 2.210938 -5.960938 2.6875 -6.09375 3.21875 -6.09375 C 4.03125 -6.09375 4.6875 -5.8125 5.1875 -5.25 C 5.695312 -4.6875 5.953125 -3.9375 5.953125 -3 L 5.953125 -2.921875 C 5.953125 -2.335938 5.835938 -1.8125 5.609375 -1.34375 C 5.390625 -0.882812 5.070312 -0.523438 4.65625 -0.265625 C 4.238281 -0.015625 3.765625 0.109375 3.234375 0.109375 C 2.421875 0.109375 1.757812 -0.171875 1.25 -0.734375 C 0.75 -1.296875 0.5 -2.039062 0.5 -2.96875 Z M 1.53125 -2.921875 C 1.53125 -2.265625 1.679688 -1.734375 1.984375 -1.328125 C 2.296875 -0.921875 2.710938 -0.71875 3.234375 -0.71875 C 3.753906 -0.71875 4.164062 -0.921875 4.46875 -1.328125 C 4.769531 -1.742188 4.921875 -2.316406 4.921875 -3.046875 C 4.921875 -3.703125 4.765625 -4.234375 4.453125 -4.640625 C 4.148438 -5.046875 3.738281 -5.25 3.21875 -5.25 C 2.71875 -5.25 2.3125 -5.046875 2 -4.640625 C 1.6875 -4.242188 1.53125 -3.671875 1.53125 -2.921875 Z M 1.53125 -2.921875 "/></g></g></g><g fill="#0033a1" fill-opacity="1"><g transform="translate(188.567233, 110.57632)"><g><path d="M 1.75 -5.984375 L 1.78125 -5.234375 C 2.238281 -5.804688 2.832031 -6.09375 3.5625 -6.09375 C 4.832031 -6.09375 5.472656 -5.378906 5.484375 -3.953125 L 5.484375 0 L 4.453125 0 L 4.453125 -3.953125 C 4.453125 -4.390625 4.351562 -4.710938 4.15625 -4.921875 C 3.96875 -5.128906 3.671875 -5.234375 3.265625 -5.234375 C 2.929688 -5.234375 2.640625 -5.144531 2.390625 -4.96875 C 2.140625 -4.789062 1.941406 -4.554688 1.796875 -4.265625 L 1.796875 0 L 0.78125 0 L 0.78125 -5.984375 Z M 1.75 -5.984375 "/></g></g></g><g fill="#0033a1" fill-opacity="1"><g transform="translate(194.814792, 110.57632)"><g><path d="M 4.265625 -1.59375 C 4.265625 -1.863281 4.160156 -2.078125 3.953125 -2.234375 C 3.742188 -2.390625 3.378906 -2.519531 2.859375 -2.625 C 2.335938 -2.738281 1.925781 -2.875 1.625 -3.03125 C 1.320312 -3.1875 1.097656 -3.367188 0.953125 -3.578125 C 0.804688 -3.796875 0.734375 -4.050781 0.734375 -4.34375 C 0.734375 -4.832031 0.9375 -5.242188 1.34375 -5.578125 C 1.757812 -5.921875 2.289062 -6.09375 2.9375 -6.09375 C 3.613281 -6.09375 4.164062 -5.914062 4.59375 -5.5625 C 5.019531 -5.21875 5.234375 -4.769531 5.234375 -4.21875 L 4.203125 -4.21875 C 4.203125 -4.5 4.082031 -4.738281 3.84375 -4.9375 C 3.601562 -5.144531 3.300781 -5.25 2.9375 -5.25 C 2.570312 -5.25 2.28125 -5.164062 2.0625 -5 C 1.851562 -4.84375 1.75 -4.632812 1.75 -4.375 C 1.75 -4.125 1.847656 -3.9375 2.046875 -3.8125 C 2.242188 -3.6875 2.597656 -3.566406 3.109375 -3.453125 C 3.617188 -3.335938 4.03125 -3.203125 4.34375 -3.046875 C 4.664062 -2.890625 4.898438 -2.695312 5.046875 -2.46875 C 5.203125 -2.25 5.28125 -1.976562 5.28125 -1.65625 C 5.28125 -1.125 5.066406 -0.695312 4.640625 -0.375 C 4.210938 -0.0507812 3.65625 0.109375 2.96875 0.109375 C 2.488281 0.109375 2.066406 0.0234375 1.703125 -0.140625 C 1.335938 -0.304688 1.050781 -0.539062 0.84375 -0.84375 C 0.632812 -1.15625 0.53125 -1.488281 0.53125 -1.84375 L 1.546875 -1.84375 C 1.566406 -1.5 1.703125 -1.222656 1.953125 -1.015625 C 2.210938 -0.816406 2.550781 -0.71875 2.96875 -0.71875 C 3.363281 -0.71875 3.675781 -0.796875 3.90625 -0.953125 C 4.144531 -1.109375 4.265625 -1.320312 4.265625 -1.59375 Z M 4.265625 -1.59375 "/></g></g></g><g fill="#0033a1" fill-opacity="1"><g transform="translate(200.653218, 110.57632)"><g><path d="M 2.15625 -7.4375 L 2.15625 -5.984375 L 3.28125 -5.984375 L 3.28125 -5.1875 L 2.15625 -5.1875 L 2.15625 -1.484375 C 2.15625 -1.242188 2.207031 -1.0625 2.3125 -0.9375 C 2.414062 -0.820312 2.585938 -0.765625 2.828125 -0.765625 C 2.941406 -0.765625 3.101562 -0.785156 3.3125 -0.828125 L 3.3125 0 C 3.039062 0.0703125 2.773438 0.109375 2.515625 0.109375 C 2.066406 0.109375 1.722656 -0.0234375 1.484375 -0.296875 C 1.253906 -0.578125 1.140625 -0.972656 1.140625 -1.484375 L 1.140625 -5.1875 L 0.046875 -5.1875 L 0.046875 -5.984375 L 1.140625 -5.984375 L 1.140625 -7.4375 Z M 2.15625 -7.4375 "/></g></g></g><g fill="#0033a1" fill-opacity="1"><g transform="translate(204.352, 110.57632)"><g><path d="M 3.671875 -5.0625 C 3.515625 -5.09375 3.34375 -5.109375 3.15625 -5.109375 C 2.488281 -5.109375 2.035156 -4.820312 1.796875 -4.25 L 1.796875 0 L 0.78125 0 L 0.78125 -5.984375 L 1.765625 -5.984375 L 1.78125 -5.296875 C 2.125 -5.828125 2.601562 -6.09375 3.21875 -6.09375 C 3.414062 -6.09375 3.566406 -6.066406 3.671875 -6.015625 Z M 3.671875 -5.0625 "/></g></g></g><g fill="#0033a1" fill-opacity="1"><g transform="translate(208.183474, 110.57632)"><g><path d="M 4.46875 -0.59375 C 4.070312 -0.125 3.488281 0.109375 2.71875 0.109375 C 2.082031 0.109375 1.59375 -0.0703125 1.25 -0.4375 C 0.914062 -0.8125 0.75 -1.363281 0.75 -2.09375 L 0.75 -5.984375 L 1.78125 -5.984375 L 1.78125 -2.125 C 1.78125 -1.207031 2.144531 -0.75 2.875 -0.75 C 3.65625 -0.75 4.175781 -1.039062 4.4375 -1.625 L 4.4375 -5.984375 L 5.46875 -5.984375 L 5.46875 0 L 4.484375 0 Z M 4.46875 -0.59375 "/></g></g></g><g fill="#0033a1" fill-opacity="1"><g transform="translate(214.42551, 110.57632)"><g><path d="M 3.171875 -0.71875 C 3.535156 -0.71875 3.851562 -0.828125 4.125 -1.046875 C 4.40625 -1.273438 4.554688 -1.554688 4.578125 -1.890625 L 5.546875 -1.890625 C 5.535156 -1.546875 5.421875 -1.21875 5.203125 -0.90625 C 4.984375 -0.59375 4.691406 -0.34375 4.328125 -0.15625 C 3.960938 0.0195312 3.578125 0.109375 3.171875 0.109375 C 2.359375 0.109375 1.710938 -0.160156 1.234375 -0.703125 C 0.753906 -1.242188 0.515625 -1.988281 0.515625 -2.9375 L 0.515625 -3.109375 C 0.515625 -3.691406 0.617188 -4.207031 0.828125 -4.65625 C 1.046875 -5.113281 1.351562 -5.46875 1.75 -5.71875 C 2.144531 -5.96875 2.617188 -6.09375 3.171875 -6.09375 C 3.835938 -6.09375 4.394531 -5.890625 4.84375 -5.484375 C 5.289062 -5.085938 5.523438 -4.566406 5.546875 -3.921875 L 4.578125 -3.921875 C 4.554688 -4.316406 4.410156 -4.632812 4.140625 -4.875 C 3.878906 -5.125 3.554688 -5.25 3.171875 -5.25 C 2.648438 -5.25 2.242188 -5.0625 1.953125 -4.6875 C 1.671875 -4.3125 1.53125 -3.769531 1.53125 -3.0625 L 1.53125 -2.875 C 1.53125 -2.1875 1.671875 -1.65625 1.953125 -1.28125 C 2.242188 -0.90625 2.648438 -0.71875 3.171875 -0.71875 Z M 3.171875 -0.71875 "/></g></g></g><g fill="#0033a1" fill-opacity="1"><g transform="translate(220.352397, 110.57632)"><g><path d="M 1.890625 0 L 0.859375 0 L 0.859375 -5.984375 L 1.890625 -5.984375 Z M 0.78125 -7.578125 C 0.78125 -7.742188 0.828125 -7.882812 0.921875 -8 C 1.023438 -8.113281 1.175781 -8.171875 1.375 -8.171875 C 1.582031 -8.171875 1.734375 -8.113281 1.828125 -8 C 1.929688 -7.882812 1.984375 -7.742188 1.984375 -7.578125 C 1.984375 -7.410156 1.929688 -7.269531 1.828125 -7.15625 C 1.734375 -7.039062 1.582031 -6.984375 1.375 -6.984375 C 1.175781 -6.984375 1.023438 -7.039062 0.921875 -7.15625 C 0.828125 -7.269531 0.78125 -7.410156 0.78125 -7.578125 Z M 0.78125 -7.578125 "/></g></g></g><g fill="#0033a1" fill-opacity="1"><g transform="translate(223.100224, 110.57632)"><g><path d="M 2.15625 -7.4375 L 2.15625 -5.984375 L 3.28125 -5.984375 L 3.28125 -5.1875 L 2.15625 -5.1875 L 2.15625 -1.484375 C 2.15625 -1.242188 2.207031 -1.0625 2.3125 -0.9375 C 2.414062 -0.820312 2.585938 -0.765625 2.828125 -0.765625 C 2.941406 -0.765625 3.101562 -0.785156 3.3125 -0.828125 L 3.3125 0 C 3.039062 0.0703125 2.773438 0.109375 2.515625 0.109375 C 2.066406 0.109375 1.722656 -0.0234375 1.484375 -0.296875 C 1.253906 -0.578125 1.140625 -0.972656 1.140625 -1.484375 L 1.140625 -5.1875 L 0.046875 -5.1875 L 0.046875 -5.984375 L 1.140625 -5.984375 L 1.140625 -7.4375 Z M 2.15625 -7.4375 "/></g></g></g><g fill="#0033a1" fill-opacity="1"><g transform="translate(226.799006, 110.57632)"><g><path d="M 2.734375 -1.5 L 4.125 -5.984375 L 5.21875 -5.984375 L 2.8125 0.921875 C 2.4375 1.921875 1.847656 2.421875 1.046875 2.421875 L 0.84375 2.40625 L 0.46875 2.328125 L 0.46875 1.5 L 0.734375 1.515625 C 1.085938 1.515625 1.359375 1.441406 1.546875 1.296875 C 1.742188 1.160156 1.90625 0.910156 2.03125 0.546875 L 2.25 -0.0625 L 0.125 -5.984375 L 1.234375 -5.984375 Z M 2.734375 -1.5 "/></g></g></g><g fill="#0033a1" fill-opacity="1"><g transform="translate(232.156432, 110.57632)"><g><path d="M 0.796875 -0.53125 C 0.796875 -0.707031 0.847656 -0.851562 0.953125 -0.96875 C 1.054688 -1.09375 1.210938 -1.15625 1.421875 -1.15625 C 1.640625 -1.15625 1.800781 -1.09375 1.90625 -0.96875 C 2.007812 -0.851562 2.0625 -0.707031 2.0625 -0.53125 C 2.0625 -0.363281 2.007812 -0.222656 1.90625 -0.109375 C 1.800781 0.00390625 1.640625 0.0625 1.421875 0.0625 C 1.210938 0.0625 1.054688 0.00390625 0.953125 -0.109375 C 0.847656 -0.222656 0.796875 -0.363281 0.796875 -0.53125 Z M 0.796875 -0.53125 "/></g></g></g><g fill="#0033a1" fill-opacity="1"><g transform="translate(235.136468, 110.57632)"><g><path d="M 5.84375 -2.921875 C 5.84375 -2.003906 5.628906 -1.269531 5.203125 -0.71875 C 4.785156 -0.164062 4.222656 0.109375 3.515625 0.109375 C 2.765625 0.109375 2.179688 -0.15625 1.765625 -0.6875 L 1.71875 0 L 0.78125 0 L 0.78125 -8.5 L 1.796875 -8.5 L 1.796875 -5.328125 C 2.210938 -5.835938 2.78125 -6.09375 3.5 -6.09375 C 4.226562 -6.09375 4.800781 -5.816406 5.21875 -5.265625 C 5.632812 -4.722656 5.84375 -3.972656 5.84375 -3.015625 Z M 4.8125 -3.046875 C 4.8125 -3.742188 4.675781 -4.28125 4.40625 -4.65625 C 4.144531 -5.039062 3.757812 -5.234375 3.25 -5.234375 C 2.570312 -5.234375 2.085938 -4.914062 1.796875 -4.28125 L 1.796875 -1.703125 C 2.109375 -1.066406 2.597656 -0.75 3.265625 -0.75 C 3.753906 -0.75 4.132812 -0.9375 4.40625 -1.3125 C 4.675781 -1.695312 4.8125 -2.273438 4.8125 -3.046875 Z M 4.8125 -3.046875 "/></g></g></g><g fill="#0033a1" fill-opacity="1"><g transform="translate(241.489081, 110.57632)"><g><path d="M 3.671875 -5.0625 C 3.515625 -5.09375 3.34375 -5.109375 3.15625 -5.109375 C 2.488281 -5.109375 2.035156 -4.820312 1.796875 -4.25 L 1.796875 0 L 0.78125 0 L 0.78125 -5.984375 L 1.765625 -5.984375 L 1.78125 -5.296875 C 2.125 -5.828125 2.601562 -6.09375 3.21875 -6.09375 C 3.414062 -6.09375 3.566406 -6.066406 3.671875 -6.015625 Z M 3.671875 -5.0625 "/></g></g></g><g fill="#0033a1" fill-opacity="1"><g transform="translate(245.320554, 110.57632)"><g><path d="M 4.46875 -0.59375 C 4.070312 -0.125 3.488281 0.109375 2.71875 0.109375 C 2.082031 0.109375 1.59375 -0.0703125 1.25 -0.4375 C 0.914062 -0.8125 0.75 -1.363281 0.75 -2.09375 L 0.75 -5.984375 L 1.78125 -5.984375 L 1.78125 -2.125 C 1.78125 -1.207031 2.144531 -0.75 2.875 -0.75 C 3.65625 -0.75 4.175781 -1.039062 4.4375 -1.625 L 4.4375 -5.984375 L 5.46875 -5.984375 L 5.46875 0 L 4.484375 0 Z M 4.46875 -0.59375 "/></g></g></g><g fill="#0033a1" fill-opacity="1"><g transform="translate(251.562591, 110.57632)"><g><path d="M 4.265625 -1.59375 C 4.265625 -1.863281 4.160156 -2.078125 3.953125 -2.234375 C 3.742188 -2.390625 3.378906 -2.519531 2.859375 -2.625 C 2.335938 -2.738281 1.925781 -2.875 1.625 -3.03125 C 1.320312 -3.1875 1.097656 -3.367188 0.953125 -3.578125 C 0.804688 -3.796875 0.734375 -4.050781 0.734375 -4.34375 C 0.734375 -4.832031 0.9375 -5.242188 1.34375 -5.578125 C 1.757812 -5.921875 2.289062 -6.09375 2.9375 -6.09375 C 3.613281 -6.09375 4.164062 -5.914062 4.59375 -5.5625 C 5.019531 -5.21875 5.234375 -4.769531 5.234375 -4.21875 L 4.203125 -4.21875 C 4.203125 -4.5 4.082031 -4.738281 3.84375 -4.9375 C 3.601562 -5.144531 3.300781 -5.25 2.9375 -5.25 C 2.570312 -5.25 2.28125 -5.164062 2.0625 -5 C 1.851562 -4.84375 1.75 -4.632812 1.75 -4.375 C 1.75 -4.125 1.847656 -3.9375 2.046875 -3.8125 C 2.242188 -3.6875 2.597656 -3.566406 3.109375 -3.453125 C 3.617188 -3.335938 4.03125 -3.203125 4.34375 -3.046875 C 4.664062 -2.890625 4.898438 -2.695312 5.046875 -2.46875 C 5.203125 -2.25 5.28125 -1.976562 5.28125 -1.65625 C 5.28125 -1.125 5.066406 -0.695312 4.640625 -0.375 C 4.210938 -0.0507812 3.65625 0.109375 2.96875 0.109375 C 2.488281 0.109375 2.066406 0.0234375 1.703125 -0.140625 C 1.335938 -0.304688 1.050781 -0.539062 0.84375 -0.84375 C 0.632812 -1.15625 0.53125 -1.488281 0.53125 -1.84375 L 1.546875 -1.84375 C 1.566406 -1.5 1.703125 -1.222656 1.953125 -1.015625 C 2.210938 -0.816406 2.550781 -0.71875 2.96875 -0.71875 C 3.363281 -0.71875 3.675781 -0.796875 3.90625 -0.953125 C 4.144531 -1.109375 4.265625 -1.320312 4.265625 -1.59375 Z M 4.265625 -1.59375 "/></g></g></g><g fill="#0033a1" fill-opacity="1"><g transform="translate(257.401017, 110.57632)"><g><path d="M 4.265625 -1.59375 C 4.265625 -1.863281 4.160156 -2.078125 3.953125 -2.234375 C 3.742188 -2.390625 3.378906 -2.519531 2.859375 -2.625 C 2.335938 -2.738281 1.925781 -2.875 1.625 -3.03125 C 1.320312 -3.1875 1.097656 -3.367188 0.953125 -3.578125 C 0.804688 -3.796875 0.734375 -4.050781 0.734375 -4.34375 C 0.734375 -4.832031 0.9375 -5.242188 1.34375 -5.578125 C 1.757812 -5.921875 2.289062 -6.09375 2.9375 -6.09375 C 3.613281 -6.09375 4.164062 -5.914062 4.59375 -5.5625 C 5.019531 -5.21875 5.234375 -4.769531 5.234375 -4.21875 L 4.203125 -4.21875 C 4.203125 -4.5 4.082031 -4.738281 3.84375 -4.9375 C 3.601562 -5.144531 3.300781 -5.25 2.9375 -5.25 C 2.570312 -5.25 2.28125 -5.164062 2.0625 -5 C 1.851562 -4.84375 1.75 -4.632812 1.75 -4.375 C 1.75 -4.125 1.847656 -3.9375 2.046875 -3.8125 C 2.242188 -3.6875 2.597656 -3.566406 3.109375 -3.453125 C 3.617188 -3.335938 4.03125 -3.203125 4.34375 -3.046875 C 4.664062 -2.890625 4.898438 -2.695312 5.046875 -2.46875 C 5.203125 -2.25 5.28125 -1.976562 5.28125 -1.65625 C 5.28125 -1.125 5.066406 -0.695312 4.640625 -0.375 C 4.210938 -0.0507812 3.65625 0.109375 2.96875 0.109375 C 2.488281 0.109375 2.066406 0.0234375 1.703125 -0.140625 C 1.335938 -0.304688 1.050781 -0.539062 0.84375 -0.84375 C 0.632812 -1.15625 0.53125 -1.488281 0.53125 -1.84375 L 1.546875 -1.84375 C 1.566406 -1.5 1.703125 -1.222656 1.953125 -1.015625 C 2.210938 -0.816406 2.550781 -0.71875 2.96875 -0.71875 C 3.363281 -0.71875 3.675781 -0.796875 3.90625 -0.953125 C 4.144531 -1.109375 4.265625 -1.320312 4.265625 -1.59375 Z M 4.265625 -1.59375 "/></g></g></g><g fill="#0033a1" fill-opacity="1"><g transform="translate(263.239443, 110.57632)"><g><path d="M 3.265625 0.109375 C 2.453125 0.109375 1.789062 -0.15625 1.28125 -0.6875 C 0.769531 -1.21875 0.515625 -1.929688 0.515625 -2.828125 L 0.515625 -3.015625 C 0.515625 -3.609375 0.625 -4.132812 0.84375 -4.59375 C 1.070312 -5.0625 1.390625 -5.425781 1.796875 -5.6875 C 2.210938 -5.957031 2.65625 -6.09375 3.125 -6.09375 C 3.90625 -6.09375 4.507812 -5.835938 4.9375 -5.328125 C 5.375 -4.816406 5.59375 -4.082031 5.59375 -3.125 L 5.59375 -2.703125 L 1.53125 -2.703125 C 1.550781 -2.109375 1.722656 -1.628906 2.046875 -1.265625 C 2.378906 -0.898438 2.800781 -0.71875 3.3125 -0.71875 C 3.675781 -0.71875 3.984375 -0.789062 4.234375 -0.9375 C 4.484375 -1.09375 4.703125 -1.289062 4.890625 -1.53125 L 5.515625 -1.046875 C 5.015625 -0.273438 4.265625 0.109375 3.265625 0.109375 Z M 3.125 -5.25 C 2.71875 -5.25 2.375 -5.097656 2.09375 -4.796875 C 1.8125 -4.503906 1.640625 -4.085938 1.578125 -3.546875 L 4.5625 -3.546875 L 4.5625 -3.625 C 4.539062 -4.132812 4.398438 -4.53125 4.140625 -4.8125 C 3.890625 -5.101562 3.550781 -5.25 3.125 -5.25 Z M 3.125 -5.25 "/></g></g></g><g fill="#0033a1" fill-opacity="1"><g transform="translate(269.238211, 110.57632)"><g><path d="M 1.890625 0 L 0.859375 0 L 0.859375 -8.5 L 1.890625 -8.5 Z M 1.890625 0 "/></g></g></g><g fill="#0033a1" fill-opacity="1"><g transform="translate(271.986038, 110.57632)"><g><path d="M 4.265625 -1.59375 C 4.265625 -1.863281 4.160156 -2.078125 3.953125 -2.234375 C 3.742188 -2.390625 3.378906 -2.519531 2.859375 -2.625 C 2.335938 -2.738281 1.925781 -2.875 1.625 -3.03125 C 1.320312 -3.1875 1.097656 -3.367188 0.953125 -3.578125 C 0.804688 -3.796875 0.734375 -4.050781 0.734375 -4.34375 C 0.734375 -4.832031 0.9375 -5.242188 1.34375 -5.578125 C 1.757812 -5.921875 2.289062 -6.09375 2.9375 -6.09375 C 3.613281 -6.09375 4.164062 -5.914062 4.59375 -5.5625 C 5.019531 -5.21875 5.234375 -4.769531 5.234375 -4.21875 L 4.203125 -4.21875 C 4.203125 -4.5 4.082031 -4.738281 3.84375 -4.9375 C 3.601562 -5.144531 3.300781 -5.25 2.9375 -5.25 C 2.570312 -5.25 2.28125 -5.164062 2.0625 -5 C 1.851562 -4.84375 1.75 -4.632812 1.75 -4.375 C 1.75 -4.125 1.847656 -3.9375 2.046875 -3.8125 C 2.242188 -3.6875 2.597656 -3.566406 3.109375 -3.453125 C 3.617188 -3.335938 4.03125 -3.203125 4.34375 -3.046875 C 4.664062 -2.890625 4.898438 -2.695312 5.046875 -2.46875 C 5.203125 -2.25 5.28125 -1.976562 5.28125 -1.65625 C 5.28125 -1.125 5.066406 -0.695312 4.640625 -0.375 C 4.210938 -0.0507812 3.65625 0.109375 2.96875 0.109375 C 2.488281 0.109375 2.066406 0.0234375 1.703125 -0.140625 C 1.335938 -0.304688 1.050781 -0.539062 0.84375 -0.84375 C 0.632812 -1.15625 0.53125 -1.488281 0.53125 -1.84375 L 1.546875 -1.84375 C 1.566406 -1.5 1.703125 -1.222656 1.953125 -1.015625 C 2.210938 -0.816406 2.550781 -0.71875 2.96875 -0.71875 C 3.363281 -0.71875 3.675781 -0.796875 3.90625 -0.953125 C 4.144531 -1.109375 4.265625 -1.320312 4.265625 -1.59375 Z M 4.265625 -1.59375 "/></g></g></g></svg>