<svg xmlns="http://www.w3.org/2000/svg" xmlns:xlink="http://www.w3.org/1999/xlink" width="600" zoomAndPan="magnify" viewBox="0 0 450 225" height="300" preserveAspectRatio="xMidYMid meet" version="1.0"><defs><g/><clipPath id="e02e706364"><path d="M 2.101562 20.378906 L 186 20.378906 L 186 106 L 2.101562 106 Z M 2.101562 20.378906 " clip-rule="nonzero"/></clipPath><clipPath id="e45a3eb6b9"><path d="M 34 49 L 117 49 L 117 204.878906 L 34 204.878906 Z M 34 49 " clip-rule="nonzero"/></clipPath><clipPath id="244fec94b1"><path d="M 55 59 L 263 59 L 263 204.878906 L 55 204.878906 Z M 55 59 " clip-rule="nonzero"/></clipPath><clipPath id="fce660d1a3"><path d="M 85 98 L 137 98 L 137 199 L 85 199 Z M 85 98 " clip-rule="nonzero"/></clipPath><clipPath id="491648e9d6"><path d="M 135.199219 198.066406 L 85.691406 196.734375 L 88.347656 98.109375 L 137.851562 99.441406 Z M 135.199219 198.066406 " clip-rule="nonzero"/></clipPath><clipPath id="43f7e88ad9"><path d="M 121.246094 102.507812 C 118.765625 100.378906 115.914062 98.949219 113.082031 98.871094 C 110.25 98.796875 107.496094 99.882812 104.929688 101.878906 C 104.871094 101.941406 104.820312 101.9375 104.765625 102 C 95.113281 109.992188 87.578125 131.582031 86.789062 155.980469 L 85.691406 196.734375 L 135.199219 198.066406 L 136.292969 157.34375 C 136.820312 132.777344 130.566406 110.820312 121.246094 102.507812 Z M 121.246094 102.507812 " clip-rule="nonzero"/></clipPath></defs><g clip-path="url(#e02e706364)"><path fill="#6f7170" d="M 110.046875 20.386719 L 2.117188 82.578125 L 2.117188 105.089844 L 110.046875 42.902344 L 185.484375 86.453125 L 185.484375 63.941406 L 110.046875 20.386719 " fill-opacity="1" fill-rule="nonzero"/></g><g clip-path="url(#e45a3eb6b9)"><path fill="#689f38" d="M 110.046875 49.855469 L 34.613281 93.410156 L 34.613281 204.625 L 47.027344 204.625 L 47.027344 93.410156 L 116.257812 53.4375 L 110.046875 49.855469 " fill-opacity="1" fill-rule="nonzero"/></g><g clip-path="url(#244fec94b1)"><path fill="#689f38" d="M 99.898438 128.730469 C 99.898438 121.835938 105.507812 116.230469 112.398438 116.230469 C 119.289062 116.230469 124.894531 121.835938 124.894531 128.730469 L 124.894531 196.878906 L 99.898438 195.472656 Z M 133.503906 197.359375 L 133.503906 128.730469 C 133.503906 117.070312 124.054688 107.621094 112.398438 107.621094 C 100.742188 107.621094 91.292969 117.070312 91.292969 128.730469 L 91.292969 194.992188 L 66.339844 193.589844 L 66.339844 98.246094 L 127.878906 62.71875 L 122.359375 59.53125 L 55.304688 98.246094 L 55.304688 204.625 L 262.984375 204.625 L 133.503906 197.359375 " fill-opacity="1" fill-rule="nonzero"/></g><g clip-path="url(#fce660d1a3)"><g clip-path="url(#491648e9d6)"><g clip-path="url(#43f7e88ad9)"><path fill="#689f38" d="M 135.199219 198.066406 L 85.691406 196.734375 L 88.347656 98.109375 L 137.851562 99.441406 Z M 135.199219 198.066406 " fill-opacity="1" fill-rule="nonzero"/></g></g></g><path stroke-linecap="butt" transform="matrix(-0.0876282, 1.303405, -1.303405, -0.0876282, 119.55989, 99.603764)" fill="none" stroke-linejoin="miter" d="M 0.479633 1.943744 C 25.249202 8.046595 50.1508 8.044757 75.175678 1.941816 " stroke="#558b2f" stroke-width="4" stroke-opacity="1" stroke-miterlimit="4"/><path stroke-linecap="butt" transform="matrix(1.302752, 0.0968576, -0.0968576, 1.302752, 87.780371, 160.511766)" fill="none" stroke-linejoin="miter" d="M 1.272763 1.542496 C 11.881376 10.294864 22.444969 10.295074 32.96056 1.543347 " stroke="#558b2f" stroke-width="4" stroke-opacity="1" stroke-miterlimit="4"/><path stroke-linecap="butt" transform="matrix(1.302752, 0.0968576, -0.0968576, 1.302752, 90.10676, 133.677969)" fill="none" stroke-linejoin="miter" d="M 1.274188 1.543745 C 11.882801 10.296113 22.44319 10.293563 32.961763 1.541614 " stroke="#558b2f" stroke-width="4" stroke-opacity="1" stroke-miterlimit="4"/><g fill="#6f7170" fill-opacity="1"><g transform="translate(144.52038, 153.120788)"><g><path d="M 4.8125 0 C 4.488281 0 4.238281 -0.09375 4.0625 -0.28125 C 3.894531 -0.46875 3.8125 -0.707031 3.8125 -1 L 3.8125 -29.59375 C 3.8125 -29.914062 3.894531 -30.171875 4.0625 -30.359375 C 4.238281 -30.546875 4.488281 -30.640625 4.8125 -30.640625 L 15.5 -30.640625 C 18.800781 -30.640625 21.410156 -29.863281 23.328125 -28.3125 C 25.253906 -26.769531 26.21875 -24.484375 26.21875 -21.453125 C 26.21875 -19.203125 25.65625 -17.367188 24.53125 -15.953125 C 23.414062 -14.535156 21.894531 -13.550781 19.96875 -13 L 26.703125 -1.359375 C 26.796875 -1.179688 26.84375 -1.019531 26.84375 -0.875 C 26.84375 -0.644531 26.742188 -0.441406 26.546875 -0.265625 C 26.359375 -0.0859375 26.148438 0 25.921875 0 L 23.8125 0 C 23.320312 0 22.957031 -0.128906 22.71875 -0.390625 C 22.488281 -0.648438 22.285156 -0.914062 22.109375 -1.1875 L 15.765625 -12.296875 L 8.09375 -12.296875 L 8.09375 -1 C 8.09375 -0.707031 8 -0.46875 7.8125 -0.28125 C 7.625 -0.09375 7.367188 0 7.046875 0 Z M 8.09375 -16.03125 L 15.328125 -16.03125 C 17.515625 -16.03125 19.144531 -16.488281 20.21875 -17.40625 C 21.300781 -18.320312 21.84375 -19.6875 21.84375 -21.5 C 21.84375 -23.28125 21.3125 -24.632812 20.25 -25.5625 C 19.1875 -26.5 17.546875 -26.96875 15.328125 -26.96875 L 8.09375 -26.96875 Z M 8.09375 -16.03125 "/></g></g></g><g fill="#6f7170" fill-opacity="1"><g transform="translate(173.197041, 153.120788)"><g><path d="M 4.8125 0 C 4.488281 0 4.238281 -0.09375 4.0625 -0.28125 C 3.894531 -0.46875 3.8125 -0.707031 3.8125 -1 L 3.8125 -29.59375 C 3.8125 -29.914062 3.894531 -30.171875 4.0625 -30.359375 C 4.238281 -30.546875 4.488281 -30.640625 4.8125 -30.640625 L 22.890625 -30.640625 C 23.210938 -30.640625 23.460938 -30.546875 23.640625 -30.359375 C 23.816406 -30.171875 23.90625 -29.914062 23.90625 -29.59375 L 23.90625 -27.9375 C 23.90625 -27.613281 23.816406 -27.363281 23.640625 -27.1875 C 23.460938 -27.007812 23.210938 -26.921875 22.890625 -26.921875 L 8.015625 -26.921875 L 8.015625 -17.34375 L 21.9375 -17.34375 C 22.257812 -17.34375 22.503906 -17.242188 22.671875 -17.046875 C 22.847656 -16.859375 22.9375 -16.601562 22.9375 -16.28125 L 22.9375 -14.671875 C 22.9375 -14.378906 22.847656 -14.132812 22.671875 -13.9375 C 22.503906 -13.75 22.257812 -13.65625 21.9375 -13.65625 L 8.015625 -13.65625 L 8.015625 -3.71875 L 23.25 -3.71875 C 23.570312 -3.71875 23.816406 -3.628906 23.984375 -3.453125 C 24.160156 -3.285156 24.25 -3.039062 24.25 -2.71875 L 24.25 -1 C 24.25 -0.707031 24.160156 -0.46875 23.984375 -0.28125 C 23.816406 -0.09375 23.570312 0 23.25 0 Z M 4.8125 0 "/></g></g></g><g fill="#6f7170" fill-opacity="1"><g transform="translate(199.728427, 153.120788)"><g><path d="M 4.8125 0 C 4.488281 0 4.238281 -0.09375 4.0625 -0.28125 C 3.894531 -0.46875 3.8125 -0.707031 3.8125 -1 L 3.8125 -29.59375 C 3.8125 -29.914062 3.894531 -30.171875 4.0625 -30.359375 C 4.238281 -30.546875 4.488281 -30.640625 4.8125 -30.640625 L 6.828125 -30.640625 C 7.179688 -30.640625 7.441406 -30.5625 7.609375 -30.40625 C 7.785156 -30.25 7.890625 -30.125 7.921875 -30.03125 L 22.453125 -7.703125 L 22.453125 -29.59375 C 22.453125 -29.914062 22.539062 -30.171875 22.71875 -30.359375 C 22.894531 -30.546875 23.144531 -30.640625 23.46875 -30.640625 L 25.5625 -30.640625 C 25.882812 -30.640625 26.140625 -30.546875 26.328125 -30.359375 C 26.523438 -30.171875 26.625 -29.914062 26.625 -29.59375 L 26.625 -1.046875 C 26.625 -0.753906 26.523438 -0.503906 26.328125 -0.296875 C 26.140625 -0.0976562 25.898438 0 25.609375 0 L 23.515625 0 C 23.191406 0 22.945312 -0.0859375 22.78125 -0.265625 C 22.625 -0.441406 22.515625 -0.554688 22.453125 -0.609375 L 7.96875 -22.71875 L 7.96875 -1 C 7.96875 -0.707031 7.875 -0.46875 7.6875 -0.28125 C 7.5 -0.09375 7.242188 0 6.921875 0 Z M 4.8125 0 "/></g></g></g><g fill="#6f7170" fill-opacity="1"><g transform="translate(230.156331, 153.120788)"><g><path d="M 14.84375 0.4375 C 12.332031 0.4375 10.1875 0.0078125 8.40625 -0.84375 C 6.625 -1.707031 5.25 -3.035156 4.28125 -4.828125 C 3.320312 -6.628906 2.785156 -8.890625 2.671875 -11.609375 C 2.640625 -12.890625 2.625 -14.117188 2.625 -15.296875 C 2.625 -16.484375 2.640625 -17.71875 2.671875 -19 C 2.785156 -21.6875 3.34375 -23.925781 4.34375 -25.71875 C 5.351562 -27.507812 6.753906 -28.847656 8.546875 -29.734375 C 10.347656 -30.628906 12.445312 -31.078125 14.84375 -31.078125 C 17.207031 -31.078125 19.285156 -30.628906 21.078125 -29.734375 C 22.867188 -28.847656 24.273438 -27.507812 25.296875 -25.71875 C 26.328125 -23.925781 26.882812 -21.6875 26.96875 -19 C 27.03125 -17.71875 27.0625 -16.484375 27.0625 -15.296875 C 27.0625 -14.117188 27.03125 -12.890625 26.96875 -11.609375 C 26.882812 -8.890625 26.351562 -6.628906 25.375 -4.828125 C 24.394531 -3.035156 23.015625 -1.707031 21.234375 -0.84375 C 19.453125 0.0078125 17.320312 0.4375 14.84375 0.4375 Z M 14.84375 -3.28125 C 17.0625 -3.28125 18.878906 -3.953125 20.296875 -5.296875 C 21.710938 -6.640625 22.476562 -8.816406 22.59375 -11.828125 C 22.644531 -13.140625 22.671875 -14.3125 22.671875 -15.34375 C 22.671875 -16.382812 22.644531 -17.546875 22.59375 -18.828125 C 22.53125 -20.835938 22.15625 -22.46875 21.46875 -23.71875 C 20.789062 -24.976562 19.878906 -25.898438 18.734375 -26.484375 C 17.597656 -27.066406 16.300781 -27.359375 14.84375 -27.359375 C 13.382812 -27.359375 12.082031 -27.066406 10.9375 -26.484375 C 9.800781 -25.898438 8.890625 -24.976562 8.203125 -23.71875 C 7.523438 -22.46875 7.140625 -20.835938 7.046875 -18.828125 C 7.015625 -17.546875 7 -16.382812 7 -15.34375 C 7 -14.3125 7.015625 -13.140625 7.046875 -11.828125 C 7.160156 -8.816406 7.929688 -6.640625 9.359375 -5.296875 C 10.796875 -3.953125 12.625 -3.28125 14.84375 -3.28125 Z M 14.84375 -3.28125 "/></g></g></g><g fill="#6f7170" fill-opacity="1"><g transform="translate(259.796173, 153.120788)"><g><path d="M 12.921875 0 C 12.484375 0 12.140625 -0.0976562 11.890625 -0.296875 C 11.640625 -0.503906 11.441406 -0.785156 11.296875 -1.140625 L 1.53125 -29.296875 C 1.46875 -29.460938 1.4375 -29.617188 1.4375 -29.765625 C 1.4375 -30.003906 1.523438 -30.207031 1.703125 -30.375 C 1.878906 -30.550781 2.085938 -30.640625 2.328125 -30.640625 L 4.59375 -30.640625 C 4.945312 -30.640625 5.21875 -30.546875 5.40625 -30.359375 C 5.59375 -30.171875 5.71875 -30.003906 5.78125 -29.859375 L 14.3125 -5.03125 L 22.890625 -29.859375 C 22.953125 -30.003906 23.070312 -30.171875 23.25 -30.359375 C 23.425781 -30.546875 23.6875 -30.640625 24.03125 -30.640625 L 26.3125 -30.640625 C 26.539062 -30.640625 26.75 -30.550781 26.9375 -30.375 C 27.132812 -30.207031 27.234375 -30.003906 27.234375 -29.765625 C 27.234375 -29.617188 27.203125 -29.460938 27.140625 -29.296875 L 17.34375 -1.140625 C 17.21875 -0.785156 17.03125 -0.503906 16.78125 -0.296875 C 16.539062 -0.0976562 16.203125 0 15.765625 0 Z M 12.921875 0 "/></g></g></g><g fill="#6f7170" fill-opacity="1"><g transform="translate(288.472835, 153.120788)"><g><path d="M 4.8125 0 C 4.488281 0 4.238281 -0.09375 4.0625 -0.28125 C 3.894531 -0.46875 3.8125 -0.707031 3.8125 -1 L 3.8125 -29.640625 C 3.8125 -29.929688 3.894531 -30.171875 4.0625 -30.359375 C 4.238281 -30.546875 4.488281 -30.640625 4.8125 -30.640625 L 7.140625 -30.640625 C 7.460938 -30.640625 7.707031 -30.546875 7.875 -30.359375 C 8.050781 -30.171875 8.140625 -29.929688 8.140625 -29.640625 L 8.140625 -1 C 8.140625 -0.707031 8.050781 -0.46875 7.875 -0.28125 C 7.707031 -0.09375 7.460938 0 7.140625 0 Z M 4.8125 0 "/></g></g></g><g fill="#6f7170" fill-opacity="1"><g transform="translate(300.42509, 153.120788)"><g><path d="M 4.8125 0 C 4.519531 0 4.28125 -0.09375 4.09375 -0.28125 C 3.90625 -0.46875 3.8125 -0.707031 3.8125 -1 L 3.8125 -29.59375 C 3.8125 -29.914062 3.90625 -30.171875 4.09375 -30.359375 C 4.28125 -30.546875 4.519531 -30.640625 4.8125 -30.640625 L 7 -30.640625 C 7.351562 -30.640625 7.617188 -30.550781 7.796875 -30.375 C 7.972656 -30.207031 8.085938 -30.066406 8.140625 -29.953125 L 17.375 -12.265625 L 26.703125 -29.953125 C 26.765625 -30.066406 26.875 -30.207031 27.03125 -30.375 C 27.195312 -30.550781 27.453125 -30.640625 27.796875 -30.640625 L 29.953125 -30.640625 C 30.265625 -30.640625 30.515625 -30.546875 30.703125 -30.359375 C 30.898438 -30.171875 31 -29.914062 31 -29.59375 L 31 -1 C 31 -0.707031 30.898438 -0.46875 30.703125 -0.28125 C 30.515625 -0.09375 30.265625 0 29.953125 0 L 27.796875 0 C 27.503906 0 27.265625 -0.09375 27.078125 -0.28125 C 26.890625 -0.46875 26.796875 -0.707031 26.796875 -1 L 26.796875 -22.546875 L 19.484375 -8.28125 C 19.367188 -7.988281 19.191406 -7.757812 18.953125 -7.59375 C 18.722656 -7.4375 18.429688 -7.359375 18.078125 -7.359375 L 16.71875 -7.359375 C 16.34375 -7.359375 16.050781 -7.4375 15.84375 -7.59375 C 15.644531 -7.757812 15.472656 -7.988281 15.328125 -8.28125 L 7.96875 -22.546875 L 7.96875 -1 C 7.96875 -0.707031 7.875 -0.46875 7.6875 -0.28125 C 7.5 -0.09375 7.257812 0 6.96875 0 Z M 4.8125 0 "/></g></g></g><g fill="#6f7170" fill-opacity="1"><g transform="translate(335.187329, 153.120788)"><g><path d="M 4.8125 0 C 4.488281 0 4.238281 -0.09375 4.0625 -0.28125 C 3.894531 -0.46875 3.8125 -0.707031 3.8125 -1 L 3.8125 -29.59375 C 3.8125 -29.914062 3.894531 -30.171875 4.0625 -30.359375 C 4.238281 -30.546875 4.488281 -30.640625 4.8125 -30.640625 L 15.9375 -30.640625 C 18.09375 -30.640625 19.96875 -30.289062 21.5625 -29.59375 C 23.15625 -28.894531 24.390625 -27.851562 25.265625 -26.46875 C 26.140625 -25.082031 26.578125 -23.351562 26.578125 -21.28125 C 26.578125 -19.207031 26.140625 -17.484375 25.265625 -16.109375 C 24.390625 -14.734375 23.15625 -13.695312 21.5625 -13 C 19.96875 -12.300781 18.09375 -11.953125 15.9375 -11.953125 L 8.1875 -11.953125 L 8.1875 -1 C 8.1875 -0.707031 8.09375 -0.46875 7.90625 -0.28125 C 7.71875 -0.09375 7.460938 0 7.140625 0 Z M 8.140625 -15.625 L 15.71875 -15.625 C 17.875 -15.625 19.492188 -16.101562 20.578125 -17.0625 C 21.660156 -18.03125 22.203125 -19.4375 22.203125 -21.28125 C 22.203125 -23.082031 21.675781 -24.476562 20.625 -25.46875 C 19.570312 -26.46875 17.9375 -26.96875 15.71875 -26.96875 L 8.140625 -26.96875 Z M 8.140625 -15.625 "/></g></g></g><g fill="#6f7170" fill-opacity="1"><g transform="translate(363.29483, 153.120788)"><g><path d="M 1.75 0 C 1.519531 0 1.316406 -0.0859375 1.140625 -0.265625 C 0.960938 -0.441406 0.875 -0.644531 0.875 -0.875 C 0.875 -1.019531 0.890625 -1.179688 0.921875 -1.359375 L 11.78125 -29.6875 C 11.894531 -29.976562 12.050781 -30.207031 12.25 -30.375 C 12.457031 -30.550781 12.765625 -30.640625 13.171875 -30.640625 L 16.15625 -30.640625 C 16.5625 -30.640625 16.863281 -30.550781 17.0625 -30.375 C 17.269531 -30.207031 17.4375 -29.976562 17.5625 -29.6875 L 28.375 -1.359375 C 28.425781 -1.179688 28.453125 -1.019531 28.453125 -0.875 C 28.453125 -0.644531 28.363281 -0.441406 28.1875 -0.265625 C 28.019531 -0.0859375 27.816406 0 27.578125 0 L 25.34375 0 C 25 0 24.742188 -0.0859375 24.578125 -0.265625 C 24.421875 -0.441406 24.3125 -0.601562 24.25 -0.75 L 21.84375 -6.96875 L 7.484375 -6.96875 L 5.078125 -0.75 C 5.046875 -0.601562 4.941406 -0.441406 4.765625 -0.265625 C 4.597656 -0.0859375 4.335938 0 3.984375 0 Z M 8.75 -10.71875 L 20.578125 -10.71875 L 14.671875 -26.265625 Z M 8.75 -10.71875 "/></g></g></g><g fill="#6f7170" fill-opacity="1"><g transform="translate(392.628211, 153.120788)"><g><path d="M 14.84375 0.4375 C 12.15625 0.4375 9.925781 -0.0546875 8.15625 -1.046875 C 6.394531 -2.046875 5.0625 -3.429688 4.15625 -5.203125 C 3.25 -6.984375 2.753906 -9.054688 2.671875 -11.421875 C 2.640625 -12.617188 2.625 -13.90625 2.625 -15.28125 C 2.625 -16.65625 2.640625 -17.96875 2.671875 -19.21875 C 2.753906 -21.582031 3.25 -23.65625 4.15625 -25.4375 C 5.0625 -27.21875 6.394531 -28.601562 8.15625 -29.59375 C 9.925781 -30.582031 12.15625 -31.078125 14.84375 -31.078125 C 16.851562 -31.078125 18.617188 -30.800781 20.140625 -30.25 C 21.660156 -29.695312 22.921875 -28.953125 23.921875 -28.015625 C 24.929688 -27.085938 25.695312 -26.046875 26.21875 -24.890625 C 26.75 -23.734375 27.039062 -22.546875 27.09375 -21.328125 C 27.125 -21.054688 27.046875 -20.832031 26.859375 -20.65625 C 26.671875 -20.488281 26.445312 -20.40625 26.1875 -20.40625 L 23.765625 -20.40625 C 23.503906 -20.40625 23.28125 -20.476562 23.09375 -20.625 C 22.90625 -20.769531 22.765625 -21.03125 22.671875 -21.40625 C 22.179688 -23.6875 21.253906 -25.25 19.890625 -26.09375 C 18.535156 -26.9375 16.851562 -27.359375 14.84375 -27.359375 C 12.476562 -27.359375 10.609375 -26.691406 9.234375 -25.359375 C 7.867188 -24.035156 7.140625 -21.914062 7.046875 -19 C 6.960938 -16.601562 6.960938 -14.148438 7.046875 -11.640625 C 7.140625 -8.722656 7.867188 -6.597656 9.234375 -5.265625 C 10.609375 -3.941406 12.476562 -3.28125 14.84375 -3.28125 C 16.851562 -3.28125 18.535156 -3.703125 19.890625 -4.546875 C 21.253906 -5.398438 22.179688 -6.960938 22.671875 -9.234375 C 22.765625 -9.617188 22.90625 -9.882812 23.09375 -10.03125 C 23.28125 -10.175781 23.503906 -10.25 23.765625 -10.25 L 26.1875 -10.25 C 26.445312 -10.25 26.671875 -10.164062 26.859375 -10 C 27.046875 -9.84375 27.125 -9.632812 27.09375 -9.375 C 27.039062 -8.144531 26.75 -6.945312 26.21875 -5.78125 C 25.695312 -4.613281 24.929688 -3.5625 23.921875 -2.625 C 22.921875 -1.6875 21.660156 -0.941406 20.140625 -0.390625 C 18.617188 0.160156 16.851562 0.4375 14.84375 0.4375 Z M 14.84375 0.4375 "/></g></g></g><g fill="#6f7170" fill-opacity="1"><g transform="translate(421.786451, 153.120788)"><g><path d="M 11.515625 0 C 11.222656 0 10.976562 -0.09375 10.78125 -0.28125 C 10.59375 -0.46875 10.5 -0.707031 10.5 -1 L 10.5 -26.75 L 2.09375 -26.75 C 1.800781 -26.75 1.5625 -26.84375 1.375 -27.03125 C 1.1875 -27.21875 1.09375 -27.457031 1.09375 -27.75 L 1.09375 -29.59375 C 1.09375 -29.914062 1.1875 -30.171875 1.375 -30.359375 C 1.5625 -30.546875 1.800781 -30.640625 2.09375 -30.640625 L 23.203125 -30.640625 C 23.523438 -30.640625 23.78125 -30.546875 23.96875 -30.359375 C 24.15625 -30.171875 24.25 -29.914062 24.25 -29.59375 L 24.25 -27.75 C 24.25 -27.457031 24.15625 -27.21875 23.96875 -27.03125 C 23.78125 -26.84375 23.523438 -26.75 23.203125 -26.75 L 14.84375 -26.75 L 14.84375 -1 C 14.84375 -0.707031 14.742188 -0.46875 14.546875 -0.28125 C 14.359375 -0.09375 14.109375 0 13.796875 0 Z M 11.515625 0 "/></g></g></g></svg>